<svg width="100%" height="100%" viewBox="0 0 128 128" version="1.1" xmlns="http://www.w3.org/2000/svg" xmlns:xlink="http://www.w3.org/1999/xlink" xml:space="preserve" xmlns:serif="http://www.serif.com/" style="fill-rule:evenodd;clip-rule:evenodd;stroke-linejoin:round;stroke-miterlimit:2;">
    <path transform="matrix(1,0,0,1,-42.7196,17.5947)" d="M43.296,102.829L43.296,-4.739L60.72,-4.739L61.008,12.541L57.984,11.245C58.56,8.269 60.192,5.461 62.88,2.821C65.568,0.181 68.856,-1.955 72.744,-3.587C76.632,-5.219 80.688,-6.035 84.912,-6.035C91.632,-6.035 97.608,-4.355 102.84,-0.995C108.072,2.365 112.2,6.973 115.224,12.829C118.248,18.685 119.76,25.453 119.76,33.133C119.76,40.717 118.248,47.461 115.224,53.365C112.2,59.269 108.072,63.925 102.84,67.333C97.608,70.741 91.728,72.445 85.2,72.445C80.784,72.445 76.536,71.581 72.456,69.853C68.376,68.125 64.92,65.869 62.088,63.085C59.256,60.301 57.504,57.373 56.832,54.301L61.152,52.285L61.152,102.829L43.296,102.829ZM81.6,56.749C85.632,56.749 89.232,55.741 92.4,53.725C95.568,51.709 98.04,48.925 99.816,45.373C101.592,41.821 102.48,37.741 102.48,33.133C102.48,28.525 101.616,24.469 99.888,20.965C98.16,17.461 95.712,14.701 92.544,12.685C89.376,10.669 85.728,9.661 81.6,9.661C77.376,9.661 73.704,10.645 70.584,12.613C67.464,14.581 64.992,17.341 63.168,20.893C61.344,24.445 60.432,28.525 60.432,33.133C60.432,37.741 61.344,41.821 63.168,45.373C64.992,48.925 67.464,51.709 70.584,53.725C73.704,55.741 77.376,56.749 81.6,56.749Z" style="fill-rule:nonzero;"/>
    <path  transform="matrix(1,0,0,1,1,0)" d="M72.433,5.78L103.384,53.759L72.433,99.871L96.384,99.871L125.854,53.759L96.384,5.78L72.433,5.78Z"/>
</svg>
